# xmcd CD database file
#
# Track frame offsets:
#	150
#	18100
#	32200
#	45207
#	59839
#	74055
#	88285
#	102362
#	119982
#	139602
#
# Disc length: 2045 seconds
#
# Revision: 0
# Processed by: cddbd v1.4PL0 Copyright (c) Steve Scherf et al.
# Submitted via: CDex 1.50beta10
#
DISCID=9507fb0a
DTITLE=Jennifer Norman - Leavin' On The Next Thing Smokin'
DYEAR=2003
DGENRE=Country
TTITLE0=Don't Make Me Love You
TTITLE1=Lover's Moon
TTITLE2=If Your Heart Is Weary
TTITLE3=Sentimental Old You
TTITLE4=Let's Fall In Love Again
TTITLE5=Come On Mr Lonely
TTITLE6=10 Minutes To Heartache
TTITLE7=Honky Tonk Angels
TTITLE8=Leaving Standing Tall
TTITLE9=L
EXTD=YEAR: 2003
EXTT0=
EXTT1=
EXTT2=
EXTT3=
EXTT4=
EXTT5=
EXTT6=
EXTT7=
EXTT8=
EXTT9=
PLAYORDER=
